<?xml version="1.0" standalone="no"?>
<!DOCTYPE svg PUBLIC "-//W3C//DTD SVG 20010904//EN"
 "http://www.w3.org/TR/2001/REC-SVG-20010904/DTD/svg10.dtd">
<svg version="1.0" xmlns="http://www.w3.org/2000/svg"
 width="480.000000pt" height="699.000000pt" viewBox="0 0 480.000000 699.000000"
 preserveAspectRatio="xMidYMid meet">

<g transform="translate(0.000000,699.000000) scale(0.100000,-0.100000)"
fill="#111">
<path d="M2278 6941 c-71 -28 -113 -57 -162 -112 -66 -74 -89 -142 -84 -254 3
-79 8 -98 38 -153 37 -70 113 -144 166 -164 l34 -12 0 -138 0 -138 -668 0
c-741 0 -721 1 -862 -67 -102 -49 -213 -160 -263 -264 -59 -121 -67 -166 -67
-405 l0 -211 -73 -5 c-137 -9 -247 -82 -308 -205 -24 -47 -24 -53 -24 -338 l0
-290 29 -63 c41 -89 125 -165 212 -192 36 -11 88 -20 115 -20 l49 0 0 -217 c0
-248 9 -300 67 -421 50 -101 168 -222 263 -269 121 -61 144 -63 582 -63 219 0
398 -4 398 -8 0 -4 -190 -78 -421 -163 l-421 -155 -357 144 c-377 153 -411
162 -465 126 -58 -38 -56 3 -56 -940 0 -859 0 -868 21 -911 25 -52 50 -70 154
-113 317 -130 1326 -562 1685 -721 l435 -193 103 -3 c81 -3 109 -1 127 11 12
8 243 110 511 226 426 185 689 297 1515 646 97 41 185 85 196 97 56 60 53 12
53 966 l0 879 -26 31 c-30 36 -80 52 -126 41 -18 -4 -189 -70 -379 -147 l-345
-140 -140 51 c-76 29 -277 101 -446 161 l-307 109 -21 57 c-25 69 -67 124
-128 166 -93 64 -73 63 -1057 63 -1004 0 -944 -4 -1035 77 -65 58 -99 126
-108 212 -4 36 -6 484 -5 995 1 854 3 932 19 975 34 91 104 164 192 198 45 17
123 18 1522 18 l1475 0 47 -22 c66 -30 133 -96 165 -162 l28 -56 3 -792 c2
-777 2 -793 -18 -853 -48 -143 -147 -239 -283 -274 l-58 -15 -45 32 -46 32
-206 0 c-191 0 -210 -2 -247 -21 -91 -48 -128 -178 -76 -271 52 -92 99 -106
342 -101 185 3 186 3 228 31 29 19 65 32 107 38 280 39 516 281 565 577 l11
69 71 6 c130 11 241 87 299 205 22 45 23 57 26 345 l3 298 -25 54 c-53 116
-170 194 -303 203 l-73 5 0 201 c0 232 -12 304 -65 414 -58 117 -180 233 -300
285 -106 46 -113 47 -827 47 l-678 0 0 134 0 134 53 30 c70 40 141 119 166
188 29 77 29 192 -1 270 -31 80 -110 163 -190 200 -82 37 -207 44 -280 15z
m630 -4448 c273 -163 507 -305 520 -316 l22 -20 0 -592 c0 -458 -3 -595 -12
-607 -7 -9 -200 -131 -428 -271 -228 -139 -457 -280 -508 -311 -62 -38 -101
-57 -115 -54 -12 3 -161 92 -332 200 -170 107 -395 249 -500 314 l-190 119 -3
598 c-1 336 2 605 7 614 9 18 1008 621 1029 622 7 1 236 -132 510 -296z
m-1921 -216 l153 -62 0 -704 c0 -665 -1 -703 -17 -697 -10 4 -208 84 -440 179
l-423 172 0 706 0 706 288 -119 c158 -65 356 -147 439 -181z m3563 -404 l0
-708 -113 -44 c-61 -25 -259 -104 -439 -178 -180 -73 -329 -133 -332 -133 -4
0 -5 316 -4 702 l3 703 440 182 c242 100 441 182 443 182 1 1 2 -317 2 -706z"/>
<path d="M2362 2575 c-18 -8 -101 -56 -185 -108 -83 -52 -255 -153 -382 -226
-126 -73 -241 -144 -255 -157 l-25 -24 0 -497 0 -496 28 -21 c15 -12 209 -132
429 -268 313 -194 409 -248 435 -248 26 0 119 53 426 243 215 134 407 258 425
275 l32 30 0 485 c0 475 0 485 -21 511 -11 14 -163 111 -337 216 -174 104
-353 212 -397 240 -91 57 -126 66 -173 45z m313 -307 c77 -49 168 -103 202
-121 35 -17 63 -34 63 -37 0 -3 -100 9 -222 27 -123 18 -226 32 -230 33 -5 0
-8 50 -8 111 l0 111 28 -18 c15 -10 90 -58 167 -106z m-345 8 l0 -105 -47 -6
c-27 -4 -130 -19 -230 -34 -101 -15 -183 -24 -183 -21 0 4 17 14 38 24 37 18
320 187 377 226 17 11 33 20 38 20 4 0 7 -47 7 -104z m-135 -353 c-30 -49
-110 -179 -177 -290 -68 -111 -125 -202 -128 -203 -3 0 -45 109 -94 243 -49
133 -91 248 -93 255 -4 8 6 12 28 13 19 0 135 15 259 33 124 19 233 34 242 35
14 1 5 -19 -37 -86z m650 47 c132 -18 245 -33 252 -35 7 -2 -22 -88 -79 -232
-50 -125 -94 -239 -99 -252 -8 -21 -20 -5 -118 155 -59 99 -138 228 -174 288
-37 59 -67 111 -67 113 0 3 10 3 23 0 12 -3 130 -20 262 -37z m-419 -32 c9
-18 104 -176 211 -352 l193 -318 -32 -37 c-167 -191 -392 -441 -397 -440 -8 0
-392 435 -410 463 -13 21 -1 43 169 322 249 407 241 394 246 394 2 0 11 -15
20 -32z m-647 -659 c1 -10 -21 -25 -64 -41 l-65 -26 1 211 0 212 64 -170 c35
-93 64 -177 64 -186z m1371 137 l0 -205 -62 26 c-35 14 -65 27 -67 29 -4 4
120 354 126 354 2 0 3 -92 3 -204z m-1107 -461 c67 -71 111 -123 97 -114 -14
9 -110 66 -214 129 l-189 113 64 27 64 28 28 -27 c16 -14 84 -84 150 -156z
m1017 124 c0 -4 -57 -40 -127 -82 -71 -41 -163 -96 -206 -121 -44 -26 -77 -43
-75 -37 1 5 65 74 140 154 l138 145 65 -27 c35 -14 65 -29 65 -32z"/>
<path d="M2481 1573 c-99 -51 -107 -277 -12 -340 19 -13 43 -23 55 -23 32 0
83 36 103 72 25 46 25 190 0 235 -33 61 -93 84 -146 56z m67 -160 c3 -72 -11
-111 -34 -92 -9 7 -14 31 -14 69 0 70 7 92 29 88 12 -2 17 -17 19 -65z"/>
<path d="M2216 1559 c-38 -30 -49 -55 -35 -80 11 -21 29 -22 87 -4 33 11 28
-14 -12 -61 -80 -94 -104 -152 -74 -182 19 -19 183 -16 202 4 36 36 7 84 -51
84 l-35 0 27 31 c39 47 65 104 65 142 0 75 -109 117 -174 66z"/>
<path d="M1458 5059 c-64 -15 -158 -68 -208 -118 -25 -25 -62 -78 -81 -116
-33 -68 -34 -73 -34 -190 0 -111 2 -124 28 -176 78 -159 220 -249 392 -249
335 0 540 345 379 640 -31 58 -116 141 -175 171 -86 44 -211 60 -301 38z"/>
<path d="M3141 5055 c-214 -60 -349 -266 -313 -478 15 -92 51 -167 113 -232
89 -95 185 -135 319 -135 241 0 420 184 420 430 0 97 -19 162 -71 239 -97 145
-302 222 -468 176z"/>
<path d="M1871 3843 c-67 -33 -92 -124 -51 -190 39 -64 26 -63 587 -63 486 0
509 1 540 20 97 59 75 209 -36 240 -22 6 -232 10 -521 10 -432 0 -489 -2 -519
-17z"/>
</g>
</svg>
